<mxfile host="65bd71144e">
    <diagram id="hG1rLm374UThTOHvBgAp" name="Page-1">
        <mxGraphModel dx="342" dy="496" grid="0" gridSize="10" guides="1" tooltips="1" connect="1" arrows="1" fold="1" page="1" pageScale="1" pageWidth="850" pageHeight="1100" math="0" shadow="0">
            <root>
                <mxCell id="0"/>
                <mxCell id="1" parent="0"/>
                <mxCell id="WZ7rXHh_-e7qmHU9D9rn-72" value="" style="group" parent="1" vertex="1" connectable="0">
                    <mxGeometry x="620" y="860" width="210" height="140" as="geometry"/>
                </mxCell>
                <mxCell id="WZ7rXHh_-e7qmHU9D9rn-63" value="" style="rounded=1;whiteSpace=wrap;html=1;fillColor=#fff2cc;strokeColor=#d6b656;" parent="WZ7rXHh_-e7qmHU9D9rn-72" vertex="1">
                    <mxGeometry width="210" height="140" as="geometry"/>
                </mxCell>
                <mxCell id="WZ7rXHh_-e7qmHU9D9rn-64" value="StoreProvider" style="text;html=1;strokeColor=none;fillColor=none;align=center;verticalAlign=middle;whiteSpace=wrap;rounded=0;" parent="WZ7rXHh_-e7qmHU9D9rn-72" vertex="1">
                    <mxGeometry y="11" width="114.5" height="30" as="geometry"/>
                </mxCell>
                <mxCell id="WZ7rXHh_-e7qmHU9D9rn-70" value="" style="group" parent="WZ7rXHh_-e7qmHU9D9rn-72" vertex="1" connectable="0">
                    <mxGeometry x="9.995332208178752" y="28.503816283626747" width="173.66466779182122" height="111.4923674327465" as="geometry"/>
                </mxCell>
                <mxCell id="WZ7rXHh_-e7qmHU9D9rn-68" value="" style="verticalLabelPosition=bottom;verticalAlign=top;html=1;shape=mxgraph.basic.flash;fillColor=#dae8fc;rotation=80;strokeColor=#6c8ebf;" parent="WZ7rXHh_-e7qmHU9D9rn-70" vertex="1">
                    <mxGeometry x="43.664667791821216" y="-24.253816283626747" width="85" height="160" as="geometry"/>
                </mxCell>
                <mxCell id="WZ7rXHh_-e7qmHU9D9rn-69" value="useMemo (Singleton)" style="text;html=1;strokeColor=none;fillColor=none;align=center;verticalAlign=middle;whiteSpace=wrap;rounded=0;" parent="WZ7rXHh_-e7qmHU9D9rn-70" vertex="1">
                    <mxGeometry x="21.164667791821216" y="25.746183716373253" width="140" height="30" as="geometry"/>
                </mxCell>
                <mxCell id="WZ7rXHh_-e7qmHU9D9rn-65" value="new Stores() =&amp;gt; Context" style="text;html=1;strokeColor=none;fillColor=none;align=left;verticalAlign=middle;whiteSpace=wrap;rounded=0;" parent="WZ7rXHh_-e7qmHU9D9rn-70" vertex="1">
                    <mxGeometry x="33.664667791821216" y="40.74618371637325" width="140" height="30" as="geometry"/>
                </mxCell>
                <mxCell id="WZ7rXHh_-e7qmHU9D9rn-49" value="" style="rounded=1;whiteSpace=wrap;html=1;fillColor=#dae8fc;strokeColor=#6c8ebf;" parent="1" vertex="1">
                    <mxGeometry x="90" y="240" width="280" height="140" as="geometry"/>
                </mxCell>
                <mxCell id="WZ7rXHh_-e7qmHU9D9rn-1" value="" style="shape=hexagon;perimeter=hexagonPerimeter2;whiteSpace=wrap;html=1;fixedSize=1;fillColor=#f5f5f5;strokeColor=#666666;fontColor=#333333;" parent="1" vertex="1">
                    <mxGeometry x="80" y="470" width="720" height="320" as="geometry"/>
                </mxCell>
                <mxCell id="WZ7rXHh_-e7qmHU9D9rn-2" value="" style="shape=hexagon;perimeter=hexagonPerimeter2;whiteSpace=wrap;html=1;fixedSize=1;fillColor=#dae8fc;strokeColor=#6c8ebf;" vertex="1" parent="1">
                    <mxGeometry x="160" y="490" width="620" height="130" as="geometry"/>
                </mxCell>
                <mxCell id="WZ7rXHh_-e7qmHU9D9rn-3" value="" style="shape=hexagon;perimeter=hexagonPerimeter2;whiteSpace=wrap;html=1;fixedSize=1;fillColor=#BECFBD;strokeColor=#82b366;" parent="1" vertex="1">
                    <mxGeometry x="260" y="510" width="500" height="90" as="geometry"/>
                </mxCell>
                <mxCell id="WZ7rXHh_-e7qmHU9D9rn-5" value="App" style="text;html=1;strokeColor=none;fillColor=none;align=center;verticalAlign=middle;whiteSpace=wrap;rounded=0;" parent="1" vertex="1">
                    <mxGeometry x="80" y="615" width="60" height="30" as="geometry"/>
                </mxCell>
                <mxCell id="WZ7rXHh_-e7qmHU9D9rn-6" value="MapProvider" style="text;html=1;strokeColor=none;fillColor=none;align=center;verticalAlign=middle;whiteSpace=wrap;rounded=0;" parent="1" vertex="1">
                    <mxGeometry x="180" y="540" width="60" height="30" as="geometry"/>
                </mxCell>
                <mxCell id="WZ7rXHh_-e7qmHU9D9rn-7" value="MapCmp" style="text;html=1;strokeColor=none;fillColor=none;align=center;verticalAlign=middle;whiteSpace=wrap;rounded=0;" parent="1" vertex="1">
                    <mxGeometry x="270" y="540" width="60" height="30" as="geometry"/>
                </mxCell>
                <mxCell id="WZ7rXHh_-e7qmHU9D9rn-9" value="" style="shape=hexagon;perimeter=hexagonPerimeter2;whiteSpace=wrap;html=1;fixedSize=1;fillColor=#d5e8d4;strokeColor=#82b366;" parent="1" vertex="1">
                    <mxGeometry x="260" y="665" width="500" height="90" as="geometry"/>
                </mxCell>
                <mxCell id="WZ7rXHh_-e7qmHU9D9rn-11" value="StatusCmp" style="text;html=1;strokeColor=none;fillColor=none;align=center;verticalAlign=middle;whiteSpace=wrap;rounded=0;" parent="1" vertex="1">
                    <mxGeometry x="270" y="695" width="60" height="30" as="geometry"/>
                </mxCell>
                <mxCell id="WZ7rXHh_-e7qmHU9D9rn-15" value="" style="shape=display;whiteSpace=wrap;html=1;fillColor=#d5e8d4;strokeColor=#82b366;size=0.125;" parent="1" vertex="1">
                    <mxGeometry x="600" y="520" width="137.5" height="70" as="geometry"/>
                </mxCell>
                <mxCell id="WZ7rXHh_-e7qmHU9D9rn-19" value="" style="verticalLabelPosition=bottom;verticalAlign=top;html=1;shape=mxgraph.basic.flash;fillColor=#dae8fc;rotation=80;strokeColor=#6c8ebf;" parent="1" vertex="1">
                    <mxGeometry x="425" y="480" width="85" height="160" as="geometry"/>
                </mxCell>
                <mxCell id="WZ7rXHh_-e7qmHU9D9rn-18" value="useEffect mapContext.initMap" style="text;html=1;strokeColor=none;fillColor=none;align=center;verticalAlign=middle;whiteSpace=wrap;rounded=0;" parent="1" vertex="1">
                    <mxGeometry x="390" y="540" width="163.17" height="30" as="geometry"/>
                </mxCell>
                <mxCell id="WZ7rXHh_-e7qmHU9D9rn-20" value="" style="shape=display;whiteSpace=wrap;html=1;fillColor=#d5e8d4;strokeColor=#82b366;size=0.125;" parent="1" vertex="1">
                    <mxGeometry x="600" y="675" width="144.33" height="70" as="geometry"/>
                </mxCell>
                <mxCell id="WZ7rXHh_-e7qmHU9D9rn-22" value="" style="verticalLabelPosition=bottom;verticalAlign=top;html=1;shape=mxgraph.basic.flash;fillColor=#dae8fc;rotation=80;strokeColor=#6c8ebf;" parent="1" vertex="1">
                    <mxGeometry x="364.33" y="635" width="85" height="160" as="geometry"/>
                </mxCell>
                <mxCell id="WZ7rXHh_-e7qmHU9D9rn-23" value="useEffect setMsg" style="text;html=1;strokeColor=none;fillColor=none;align=center;verticalAlign=middle;whiteSpace=wrap;rounded=0;" parent="1" vertex="1">
                    <mxGeometry x="357.5" y="695" width="105" height="30" as="geometry"/>
                </mxCell>
                <mxCell id="WZ7rXHh_-e7qmHU9D9rn-24" value="" style="shape=cylinder3;whiteSpace=wrap;html=1;boundedLbl=1;backgroundOutline=1;size=15;lid=0;fillColor=#fff2cc;strokeColor=#d6b656;" parent="1" vertex="1">
                    <mxGeometry x="510" y="670" width="70" height="80" as="geometry"/>
                </mxCell>
                <mxCell id="WZ7rXHh_-e7qmHU9D9rn-25" value="return status div" style="text;html=1;strokeColor=none;fillColor=none;align=center;verticalAlign=middle;whiteSpace=wrap;rounded=0;" parent="1" vertex="1">
                    <mxGeometry x="614.66" y="695" width="115" height="30" as="geometry"/>
                </mxCell>
                <mxCell id="WZ7rXHh_-e7qmHU9D9rn-27" value="" style="whiteSpace=wrap;html=1;shape=mxgraph.basic.document;fillColor=#e1d5e7;strokeColor=#9673a6;" parent="1" vertex="1">
                    <mxGeometry x="410" y="230" width="260" height="190" as="geometry"/>
                </mxCell>
                <mxCell id="WZ7rXHh_-e7qmHU9D9rn-28" value="class MapController" style="text;html=1;strokeColor=none;fillColor=none;align=center;verticalAlign=middle;whiteSpace=wrap;rounded=0;" parent="1" vertex="1">
                    <mxGeometry x="425" y="240" width="114.5" height="30" as="geometry"/>
                </mxCell>
                <mxCell id="WZ7rXHh_-e7qmHU9D9rn-29" value="" style="triangle;whiteSpace=wrap;html=1;fillColor=#dae8fc;strokeColor=#6c8ebf;" parent="1" vertex="1">
                    <mxGeometry x="702" y="530" width="30" height="50" as="geometry"/>
                </mxCell>
                <mxCell id="WZ7rXHh_-e7qmHU9D9rn-14" value="return mapNode ref" style="text;html=1;strokeColor=none;fillColor=none;align=center;verticalAlign=middle;whiteSpace=wrap;rounded=0;" parent="1" vertex="1">
                    <mxGeometry x="610" y="540" width="115" height="30" as="geometry"/>
                </mxCell>
                <mxCell id="WZ7rXHh_-e7qmHU9D9rn-32" value="" style="whiteSpace=wrap;html=1;shape=mxgraph.basic.document;fillColor=#C5B9C9;strokeColor=#9673a6;" parent="1" vertex="1">
                    <mxGeometry x="432.5" y="340" width="217.5" height="60" as="geometry"/>
                </mxCell>
                <mxCell id="WZ7rXHh_-e7qmHU9D9rn-34" value="new JSAPI.EsriMap()" style="text;html=1;strokeColor=none;fillColor=none;align=center;verticalAlign=middle;whiteSpace=wrap;rounded=0;" parent="1" vertex="1">
                    <mxGeometry x="425" y="340" width="145" height="30" as="geometry"/>
                </mxCell>
                <mxCell id="WZ7rXHh_-e7qmHU9D9rn-56" value="" style="edgeStyle=orthogonalEdgeStyle;rounded=0;orthogonalLoop=1;jettySize=auto;html=1;entryX=0.017;entryY=0.093;entryDx=0;entryDy=0;entryPerimeter=0;fillColor=#dae8fc;strokeColor=#6c8ebf;" parent="1" source="WZ7rXHh_-e7qmHU9D9rn-30" target="WZ7rXHh_-e7qmHU9D9rn-29" edge="1">
                    <mxGeometry relative="1" as="geometry">
                        <Array as="points">
                            <mxPoint x="575" y="440"/>
                            <mxPoint x="703" y="440"/>
                        </Array>
                    </mxGeometry>
                </mxCell>
                <mxCell id="WZ7rXHh_-e7qmHU9D9rn-30" value="" style="triangle;whiteSpace=wrap;html=1;fillColor=#dae8fc;strokeColor=#6c8ebf;" parent="1" vertex="1">
                    <mxGeometry x="560" y="345" width="30" height="50" as="geometry"/>
                </mxCell>
                <mxCell id="WZ7rXHh_-e7qmHU9D9rn-31" value="ref mapNode" style="text;html=1;strokeColor=none;fillColor=none;align=center;verticalAlign=middle;whiteSpace=wrap;rounded=0;" parent="1" vertex="1">
                    <mxGeometry x="539.5" y="355" width="114.5" height="30" as="geometry"/>
                </mxCell>
                <mxCell id="WZ7rXHh_-e7qmHU9D9rn-35" value="" style="shape=cylinder3;whiteSpace=wrap;html=1;boundedLbl=1;backgroundOutline=1;size=15;lid=0;fillColor=#fff2cc;strokeColor=#d6b656;" parent="1" vertex="1">
                    <mxGeometry x="567.5" y="270" width="70" height="55" as="geometry"/>
                </mxCell>
                <mxCell id="WZ7rXHh_-e7qmHU9D9rn-36" value="this.stores" style="text;html=1;strokeColor=none;fillColor=none;align=center;verticalAlign=middle;whiteSpace=wrap;rounded=0;" parent="1" vertex="1">
                    <mxGeometry x="545" y="282.5" width="115" height="30" as="geometry"/>
                </mxCell>
                <mxCell id="WZ7rXHh_-e7qmHU9D9rn-42" value="MapProvider" style="text;html=1;strokeColor=none;fillColor=none;align=center;verticalAlign=middle;whiteSpace=wrap;rounded=0;" parent="1" vertex="1">
                    <mxGeometry x="89.99999999999999" y="252.5" width="114.5" height="30" as="geometry"/>
                </mxCell>
                <mxCell id="WZ7rXHh_-e7qmHU9D9rn-48" value="new MapController() =&amp;gt; Context" style="text;html=1;strokeColor=none;fillColor=none;align=left;verticalAlign=middle;whiteSpace=wrap;rounded=0;" parent="1" vertex="1">
                    <mxGeometry x="110" y="295" width="190" height="30" as="geometry"/>
                </mxCell>
                <mxCell id="WZ7rXHh_-e7qmHU9D9rn-50" value="mapController.setStores()" style="text;html=1;strokeColor=#d6b656;fillColor=#fff2cc;align=center;verticalAlign=middle;whiteSpace=wrap;rounded=0;" parent="1" vertex="1">
                    <mxGeometry x="110" y="325" width="145" height="30" as="geometry"/>
                </mxCell>
                <mxCell id="WZ7rXHh_-e7qmHU9D9rn-51" value="" style="html=1;shadow=0;dashed=0;align=center;verticalAlign=middle;shape=mxgraph.arrows2.arrow;dy=0.6;dx=40;notch=0;fillColor=#e1d5e7;strokeColor=#9673a6;" parent="1" vertex="1">
                    <mxGeometry x="300" y="297.5" width="117" height="25" as="geometry"/>
                </mxCell>
                <mxCell id="WZ7rXHh_-e7qmHU9D9rn-57" value="" style="verticalLabelPosition=bottom;verticalAlign=top;html=1;shape=mxgraph.basic.tick;strokeColor=#6c8ebf;fillColor=#dae8fc;rotation=-175;flipH=1;" parent="1" vertex="1">
                    <mxGeometry x="254.38" y="358.63" width="119.45" height="170" as="geometry"/>
                </mxCell>
                <mxCell id="WZ7rXHh_-e7qmHU9D9rn-55" value="useMapContext Hook" style="text;html=1;strokeColor=none;fillColor=none;align=center;verticalAlign=middle;whiteSpace=wrap;rounded=0;" parent="1" vertex="1">
                    <mxGeometry x="287" y="425.76" width="123" height="30" as="geometry"/>
                </mxCell>
                <mxCell id="WZ7rXHh_-e7qmHU9D9rn-58" value="" style="html=1;shadow=0;dashed=0;align=center;verticalAlign=middle;shape=mxgraph.arrows2.arrow;dy=0.6;dx=40;notch=0;fillColor=#e1d5e7;strokeColor=#9673a6;" parent="1" vertex="1">
                    <mxGeometry x="300" y="327.5" width="117" height="25" as="geometry"/>
                </mxCell>
                <mxCell id="WZ7rXHh_-e7qmHU9D9rn-61" value="statusStore,&lt;br&gt;mapStore" style="text;html=1;strokeColor=none;fillColor=none;align=center;verticalAlign=middle;whiteSpace=wrap;rounded=0;" parent="1" vertex="1">
                    <mxGeometry x="487.5" y="700" width="115" height="30" as="geometry"/>
                </mxCell>
                <mxCell id="WZ7rXHh_-e7qmHU9D9rn-59" value="" style="html=1;shadow=0;dashed=0;align=center;verticalAlign=middle;shape=mxgraph.arrows2.arrow;dy=0.6;dx=40;notch=0;fillColor=#dae8fc;strokeColor=#6c8ebf;rotation=90;" parent="1" vertex="1">
                    <mxGeometry x="137" y="424.13" width="131" height="25" as="geometry"/>
                </mxCell>
                <mxCell id="WZ7rXHh_-e7qmHU9D9rn-71" value="" style="group" connectable="0" vertex="1" parent="1">
                    <mxGeometry x="530.55" y="725" width="119.45000000000005" height="170" as="geometry"/>
                </mxCell>
                <mxCell id="WZ7rXHh_-e7qmHU9D9rn-60" value="" style="verticalLabelPosition=bottom;verticalAlign=top;html=1;shape=mxgraph.basic.tick;strokeColor=#6c8ebf;fillColor=#dae8fc;rotation=0;flipH=1;" parent="WZ7rXHh_-e7qmHU9D9rn-71" vertex="1">
                    <mxGeometry width="119.45" height="170" as="geometry"/>
                </mxCell>
                <mxCell id="WZ7rXHh_-e7qmHU9D9rn-26" value="useStores" style="text;html=1;strokeColor=none;fillColor=none;align=center;verticalAlign=middle;whiteSpace=wrap;rounded=0;" parent="WZ7rXHh_-e7qmHU9D9rn-71" vertex="1">
                    <mxGeometry y="65" width="115" height="30" as="geometry"/>
                </mxCell>
                <mxCell id="WZ7rXHh_-e7qmHU9D9rn-73" value="" style="whiteSpace=wrap;html=1;shape=mxgraph.basic.document;fillColor=#fff2cc;strokeColor=#d6b656;" parent="1" vertex="1">
                    <mxGeometry x="422.5" y="920" width="120" height="50" as="geometry"/>
                </mxCell>
                <mxCell id="WZ7rXHh_-e7qmHU9D9rn-74" value="class Stores" style="text;html=1;strokeColor=none;fillColor=none;align=center;verticalAlign=middle;whiteSpace=wrap;rounded=0;" parent="1" vertex="1">
                    <mxGeometry x="417" y="930" width="114.5" height="30" as="geometry"/>
                </mxCell>
                <mxCell id="WZ7rXHh_-e7qmHU9D9rn-77" value="" style="html=1;shadow=0;dashed=0;align=center;verticalAlign=middle;shape=mxgraph.arrows2.arrow;dy=0.6;dx=40;notch=0;fillColor=#fff2cc;strokeColor=#d6b656;rotation=-180;" parent="1" vertex="1">
                    <mxGeometry x="516.5" y="932.5" width="117" height="25" as="geometry"/>
                </mxCell>
                <mxCell id="WZ7rXHh_-e7qmHU9D9rn-78" value="" style="whiteSpace=wrap;html=1;shape=mxgraph.basic.document;fillColor=#fff2cc;strokeColor=#d6b656;" parent="1" vertex="1">
                    <mxGeometry x="212.5" y="900" width="120" height="50" as="geometry"/>
                </mxCell>
                <mxCell id="WZ7rXHh_-e7qmHU9D9rn-79" value="class AppStore" style="text;html=1;strokeColor=none;fillColor=none;align=center;verticalAlign=middle;whiteSpace=wrap;rounded=0;" parent="1" vertex="1">
                    <mxGeometry x="207" y="910" width="114.5" height="30" as="geometry"/>
                </mxCell>
                <mxCell id="WZ7rXHh_-e7qmHU9D9rn-80" value="" style="whiteSpace=wrap;html=1;shape=mxgraph.basic.document;fillColor=#fff2cc;strokeColor=#d6b656;" parent="1" vertex="1">
                    <mxGeometry x="240" y="940" width="120" height="50" as="geometry"/>
                </mxCell>
                <mxCell id="WZ7rXHh_-e7qmHU9D9rn-81" value="class MapStore" style="text;html=1;strokeColor=none;fillColor=none;align=center;verticalAlign=middle;whiteSpace=wrap;rounded=0;" parent="1" vertex="1">
                    <mxGeometry x="234.5" y="950" width="114.5" height="30" as="geometry"/>
                </mxCell>
                <mxCell id="WZ7rXHh_-e7qmHU9D9rn-82" value="" style="html=1;shadow=0;dashed=0;align=center;verticalAlign=middle;shape=mxgraph.arrows2.arrow;dy=0.6;dx=40;notch=0;fillColor=#fff2cc;strokeColor=#d6b656;rotation=-180;" parent="1" vertex="1">
                    <mxGeometry x="315.5" y="917.5" width="117" height="25" as="geometry"/>
                </mxCell>
                <mxCell id="WZ7rXHh_-e7qmHU9D9rn-83" value="" style="html=1;shadow=0;dashed=0;align=center;verticalAlign=middle;shape=mxgraph.arrows2.arrow;dy=0.6;dx=40;notch=0;fillColor=#fff2cc;strokeColor=#d6b656;rotation=-180;" parent="1" vertex="1">
                    <mxGeometry x="330" y="945" width="107" height="25" as="geometry"/>
                </mxCell>
                <mxCell id="WZ7rXHh_-e7qmHU9D9rn-84" value="React Mechanisms" style="rounded=1;whiteSpace=wrap;html=1;fillColor=#dae8fc;strokeColor=#6c8ebf;" parent="1" vertex="1">
                    <mxGeometry x="91.5" y="90" width="200" height="30" as="geometry"/>
                </mxCell>
                <mxCell id="WZ7rXHh_-e7qmHU9D9rn-85" value="MobX-related" style="rounded=1;whiteSpace=wrap;html=1;fillColor=#fff2cc;strokeColor=#d6b656;" parent="1" vertex="1">
                    <mxGeometry x="91.5" y="130" width="200" height="30" as="geometry"/>
                </mxCell>
                <mxCell id="WZ7rXHh_-e7qmHU9D9rn-86" value="React Components" style="rounded=1;whiteSpace=wrap;html=1;fillColor=#d5e8d4;strokeColor=#82b366;" parent="1" vertex="1">
                    <mxGeometry x="302.5" y="90" width="185" height="30" as="geometry"/>
                </mxCell>
                <mxCell id="WZ7rXHh_-e7qmHU9D9rn-87" value="ArcGIS Maps SDK for JavaScript" style="rounded=1;whiteSpace=wrap;html=1;fillColor=#e1d5e7;strokeColor=#9673a6;" parent="1" vertex="1">
                    <mxGeometry x="302.5" y="130" width="185" height="30" as="geometry"/>
                </mxCell>
                <mxCell id="WZ7rXHh_-e7qmHU9D9rn-88" value="" style="shape=partialRectangle;whiteSpace=wrap;html=1;bottom=0;right=0;fillColor=none;strokeColor=#95A394;flipH=0;flipV=1;" parent="1" vertex="1">
                    <mxGeometry x="80" y="80" width="720" height="120" as="geometry"/>
                </mxCell>
                <mxCell id="WZ7rXHh_-e7qmHU9D9rn-89" value="Legend" style="text;html=1;strokeColor=none;fillColor=none;align=left;verticalAlign=middle;whiteSpace=wrap;rounded=0;" parent="1" vertex="1">
                    <mxGeometry x="91.5" y="167" width="123" height="30" as="geometry"/>
                </mxCell>
            </root>
        </mxGraphModel>
    </diagram>
</mxfile>